<?xml version="1.0" standalone="no"?><!-- Generator: Gravit.io --><svg xmlns="http://www.w3.org/2000/svg" xmlns:xlink="http://www.w3.org/1999/xlink" style="isolation:isolate" viewBox="232.723 85.224 533.554 225.776" width="533.554" height="225.776"><path d=" M 361.728 207.616 L 398.304 207.616 L 380.016 155.776 L 361.728 207.616 Z  M 381.024 150.016 L 416.448 250.816 L 413.424 250.816 L 399.312 210.352 L 360.72 210.352 L 346.464 250.816 L 343.728 250.816 L 379.008 150.016 L 381.024 150.016 Z  M 432 152.896 L 432 207.616 L 463.392 207.616 L 463.392 207.616 Q 476.496 207.616 482.616 199.696 L 482.616 199.696 L 482.616 199.696 Q 488.736 191.776 488.736 179.68 L 488.736 179.68 L 488.736 179.68 Q 488.736 167.584 482.328 160.24 L 482.328 160.24 L 482.328 160.24 Q 475.92 152.896 463.392 152.896 L 463.392 152.896 L 432 152.896 Z  M 472.032 209.488 L 491.76 250.816 L 488.736 250.816 L 469.296 210.064 L 469.296 210.064 Q 466.704 210.352 465.696 210.352 L 465.696 210.352 L 432 210.352 L 432 250.816 L 429.12 250.816 L 429.12 150.016 L 463.536 150.016 L 463.536 150.016 Q 477.792 150.016 484.704 158.368 L 484.704 158.368 L 484.704 158.368 Q 491.616 166.72 491.616 180.832 L 491.616 180.832 L 491.616 180.832 Q 491.616 188.32 488.16 196.384 L 488.16 196.384 L 488.16 196.384 Q 486.288 200.848 482.112 204.304 L 482.112 204.304 L 482.112 204.304 Q 477.936 207.76 472.032 209.488 L 472.032 209.488 Z  M 513.072 210.352 L 513.072 250.816 L 510.336 250.816 L 510.336 150.016 L 545.76 150.016 L 545.76 150.016 Q 559.44 150.016 566.136 158.368 L 566.136 158.368 L 566.136 158.368 Q 572.832 166.72 572.832 180.832 L 572.832 180.832 L 572.832 180.832 Q 572.832 210.352 543.888 210.352 L 543.888 210.352 L 513.072 210.352 Z  M 513.072 152.896 L 513.072 207.616 L 543.6 207.616 L 543.6 207.616 Q 570.096 207.616 570.096 180.832 L 570.096 180.832 L 570.096 180.832 Q 570.096 168.016 564.264 160.456 L 564.264 160.456 L 564.264 160.456 Q 558.432 152.896 545.904 152.896 L 545.904 152.896 L 513.072 152.896 Z  M 598.176 207.616 L 634.752 207.616 L 616.464 155.776 L 598.176 207.616 Z  M 617.472 150.016 L 652.896 250.816 L 649.872 250.816 L 635.76 210.352 L 597.168 210.352 L 582.912 250.816 L 580.176 250.816 L 615.456 150.016 L 617.472 150.016 Z " fill-rule="evenodd" fill="rgb(0,0,0)"/><path d=" M 648.574 267.372 L 648.574 258.012 L 649.594 258.012 L 649.594 269.297 L 648.486 269.297 L 642.8 259.796 L 642.8 269.297 L 641.728 269.297 L 641.728 258.012 L 642.923 258.012 L 648.574 267.372 Z  M 658.772 268.229 L 658.772 268.229 L 658.772 268.229 Q 657.941 269.385 656.228 269.385 L 656.228 269.385 L 656.228 269.385 Q 654.514 269.385 653.683 268.229 L 653.683 268.229 L 653.683 268.229 Q 652.853 267.073 652.853 264.946 L 652.853 264.946 L 652.853 264.946 Q 652.853 262.723 653.666 261.615 L 653.666 261.615 L 653.666 261.615 Q 654.479 260.508 656.228 260.508 L 656.228 260.508 L 656.228 260.508 Q 657.977 260.508 658.79 261.615 L 658.79 261.615 L 658.79 261.615 Q 659.603 262.723 659.603 264.946 L 659.603 264.946 L 659.603 264.946 Q 659.603 267.073 658.772 268.229 Z  M 657.124 261.602 L 657.124 261.602 L 657.124 261.602 Q 656.737 261.431 656.228 261.431 L 656.228 261.431 L 656.228 261.431 Q 655.718 261.431 655.331 261.602 L 655.331 261.602 L 655.331 261.602 Q 654.944 261.773 654.689 262.072 L 654.689 262.072 L 654.689 262.072 Q 654.435 262.371 654.272 262.819 L 654.272 262.819 L 654.272 262.819 Q 654.109 263.268 654.043 263.786 L 654.043 263.786 L 654.043 263.786 Q 653.978 264.305 653.978 264.946 L 653.978 264.946 L 653.978 264.946 Q 653.978 265.772 654.083 266.383 L 654.083 266.383 L 654.083 266.383 Q 654.188 266.994 654.439 267.478 L 654.439 267.478 L 654.439 267.478 Q 654.689 267.961 655.138 268.207 L 655.138 268.207 L 655.138 268.207 Q 655.586 268.453 656.228 268.453 L 656.228 268.453 L 656.228 268.453 Q 656.869 268.453 657.317 268.207 L 657.317 268.207 L 657.317 268.207 Q 657.766 267.961 658.016 267.478 L 658.016 267.478 L 658.016 267.478 Q 658.267 266.994 658.372 266.383 L 658.372 266.383 L 658.372 266.383 Q 658.478 265.772 658.478 264.946 L 658.478 264.946 L 658.478 264.946 Q 658.478 264.305 658.412 263.786 L 658.412 263.786 L 658.412 263.786 Q 658.346 263.268 658.183 262.819 L 658.183 262.819 L 658.183 262.819 Q 658.021 262.371 657.766 262.072 L 657.766 262.072 L 657.766 262.072 Q 657.511 261.773 657.124 261.602 Z  M 668.073 261.185 L 668.073 257.361 L 669.198 257.361 L 669.198 269.297 L 668.284 269.297 L 668.196 268.857 L 668.196 268.857 Q 667.212 269.385 666.069 269.385 L 666.069 269.385 L 666.069 269.385 Q 665.261 269.385 664.628 269.143 L 664.628 269.143 L 664.628 269.143 Q 663.995 268.901 663.507 268.387 L 663.507 268.387 L 663.507 268.387 Q 663.02 267.873 662.76 267.007 L 662.76 267.007 L 662.76 267.007 Q 662.501 266.142 662.501 264.964 L 662.501 264.964 L 662.501 264.964 Q 662.501 264.041 662.677 263.29 L 662.677 263.29 L 662.677 263.29 Q 662.853 262.538 663.156 262.028 L 663.156 262.028 L 663.156 262.028 Q 663.459 261.519 663.881 261.171 L 663.881 261.171 L 663.881 261.171 Q 664.303 260.824 664.786 260.666 L 664.786 260.666 L 664.786 260.666 Q 665.27 260.508 665.806 260.508 L 665.806 260.508 L 665.806 260.508 Q 666.403 260.508 666.922 260.648 L 666.922 260.648 L 666.922 260.648 Q 667.44 260.789 668.073 261.185 L 668.073 261.185 Z  M 668.073 268.093 L 668.073 268.093 L 668.073 262.187 L 668.073 262.187 Q 667.353 261.773 666.874 261.602 L 666.874 261.602 L 666.874 261.602 Q 666.395 261.431 665.946 261.431 L 665.946 261.431 L 665.946 261.431 Q 664.874 261.431 664.25 262.323 L 664.25 262.323 L 664.25 262.323 Q 663.626 263.215 663.626 264.981 L 663.626 264.981 L 663.626 264.981 Q 663.626 268.453 666.228 268.453 L 666.228 268.453 L 666.474 268.453 L 666.474 268.453 Q 667.3 268.453 668.073 268.093 Z  M 675.894 261.431 L 675.894 261.431 L 675.894 261.431 Q 674.786 261.431 674.197 262.2 L 674.197 262.2 L 674.197 262.2 Q 673.608 262.969 673.503 264.384 L 673.503 264.384 L 677.959 264.384 L 677.959 263.944 L 677.959 263.944 Q 677.959 262.793 677.401 262.112 L 677.401 262.112 L 677.401 262.112 Q 676.843 261.431 675.894 261.431 Z  M 676.043 268.453 L 676.043 268.453 L 676.043 268.453 Q 677.396 268.453 678.504 267.75 L 678.504 267.75 L 678.847 268.638 L 678.847 268.638 Q 678.249 269.007 677.511 269.196 L 677.511 269.196 L 677.511 269.196 Q 676.772 269.385 676.104 269.385 L 676.104 269.385 L 676.104 269.385 Q 674.329 269.385 673.354 268.313 L 673.354 268.313 L 673.354 268.313 Q 672.378 267.24 672.378 264.938 L 672.378 264.938 L 672.378 264.938 Q 672.378 262.731 673.327 261.62 L 673.327 261.62 L 673.327 261.62 Q 674.276 260.508 675.885 260.508 L 675.885 260.508 L 675.885 260.508 Q 677.335 260.508 678.17 261.457 L 678.17 261.457 L 678.17 261.457 Q 679.005 262.406 679.005 263.988 L 679.005 263.988 L 679.005 263.988 Q 679.005 264.349 678.935 265.175 L 678.935 265.175 L 673.503 265.175 L 673.503 265.175 Q 673.512 265.957 673.661 266.55 L 673.661 266.55 L 673.661 266.55 Q 673.811 267.144 674.039 267.5 L 674.039 267.5 L 674.039 267.5 Q 674.268 267.855 674.606 268.075 L 674.606 268.075 L 674.606 268.075 Q 674.944 268.295 675.287 268.374 L 675.287 268.374 L 675.287 268.374 Q 675.63 268.453 676.043 268.453 Z  M 682.176 267.521 L 683.582 267.521 L 683.582 269.297 L 682.176 269.297 L 682.176 267.521 Z  M 687.649 270.896 L 687.649 270.896 L 687.649 270.896 Q 688.37 270.896 688.612 270.492 L 688.612 270.492 L 688.612 270.492 Q 688.854 270.088 688.854 269.051 L 688.854 269.051 L 688.854 261.431 L 686.885 261.431 L 686.885 260.64 L 689.979 260.64 L 689.979 269.139 L 689.979 269.139 Q 689.979 270.571 689.407 271.23 L 689.407 271.23 L 689.407 271.23 Q 688.836 271.89 687.685 271.89 L 687.685 271.89 L 687.685 271.89 Q 686.814 271.89 686.208 271.714 L 686.208 271.714 L 686.349 270.756 L 686.349 270.756 Q 686.92 270.896 687.649 270.896 Z  M 688.599 258.188 L 688.599 258.188 L 688.599 258.188 Q 688.599 257.818 688.827 257.599 L 688.827 257.599 L 688.827 257.599 Q 689.056 257.379 689.398 257.379 L 689.398 257.379 L 689.398 257.379 Q 689.759 257.379 689.974 257.581 L 689.974 257.581 L 689.974 257.581 Q 690.189 257.783 690.189 258.17 L 690.189 258.17 L 690.189 258.17 Q 690.189 258.557 689.974 258.759 L 689.974 258.759 L 689.974 258.759 Q 689.759 258.961 689.398 258.961 L 689.398 258.961 L 689.398 258.961 Q 689.047 258.961 688.823 258.754 L 688.823 258.754 L 688.823 258.754 Q 688.599 258.548 688.599 258.188 Z  M 693.334 268.69 L 693.694 267.829 L 693.694 267.829 Q 694.134 268.075 694.833 268.264 L 694.833 268.264 L 694.833 268.264 Q 695.531 268.453 696.173 268.453 L 696.173 268.453 L 696.173 268.453 Q 696.981 268.453 697.478 268.106 L 697.478 268.106 L 697.478 268.106 Q 697.975 267.759 697.975 266.968 L 697.975 266.968 L 697.975 266.968 Q 697.975 266.353 697.693 266.049 L 697.693 266.049 L 697.693 266.049 Q 697.412 265.746 696.823 265.562 L 696.823 265.562 L 695.505 265.148 L 695.505 265.148 Q 694.978 264.981 694.639 264.819 L 694.639 264.819 L 694.639 264.819 Q 694.301 264.656 694.011 264.397 L 694.011 264.397 L 694.011 264.397 Q 693.721 264.138 693.589 263.755 L 693.589 263.755 L 693.589 263.755 Q 693.457 263.373 693.457 262.837 L 693.457 262.837 L 693.457 262.837 Q 693.457 261.659 694.266 261.083 L 694.266 261.083 L 694.266 261.083 Q 695.074 260.508 696.305 260.508 L 696.305 260.508 L 696.305 260.508 Q 697.535 260.508 698.643 261.018 L 698.643 261.018 L 698.309 261.861 L 698.309 261.861 Q 697.403 261.431 696.384 261.431 L 696.384 261.431 L 696.384 261.431 Q 695.566 261.431 695.048 261.778 L 695.048 261.778 L 695.048 261.778 Q 694.529 262.125 694.529 262.881 L 694.529 262.881 L 694.529 262.881 Q 694.529 263.443 694.815 263.672 L 694.815 263.672 L 694.815 263.672 Q 695.101 263.9 695.839 264.138 L 695.839 264.138 L 697.131 264.551 L 697.131 264.551 Q 697.843 264.779 698.243 265.047 L 698.243 265.047 L 698.243 265.047 Q 698.643 265.315 698.858 265.768 L 698.858 265.768 L 698.858 265.768 Q 699.073 266.221 699.073 266.915 L 699.073 266.915 L 699.073 266.915 Q 699.073 267.574 698.845 268.066 L 698.845 268.066 L 698.845 268.066 Q 698.616 268.559 698.208 268.84 L 698.208 268.84 L 698.208 268.84 Q 697.799 269.121 697.307 269.253 L 697.307 269.253 L 697.307 269.253 Q 696.814 269.385 696.226 269.385 L 696.226 269.385 L 696.226 269.385 Q 694.767 269.385 693.334 268.69 L 693.334 268.69 Z  M 613.426 269.297 L 612.301 269.297 L 612.301 261.448 L 610.613 261.448 L 610.613 260.64 L 612.301 260.64 L 612.301 260.64 Q 612.301 259.646 612.393 259.018 L 612.393 259.018 L 612.393 259.018 Q 612.485 258.39 612.736 257.933 L 612.736 257.933 L 612.736 257.933 Q 612.986 257.476 613.43 257.273 L 613.43 257.273 L 613.43 257.273 Q 613.874 257.071 614.577 257.045 L 614.577 257.045 L 614.577 257.045 Q 615.535 257.045 616.203 257.273 L 616.203 257.273 L 616.063 258.152 L 616.063 258.152 Q 615.878 258.1 615.465 258.034 L 615.465 258.034 L 615.465 258.034 Q 615.052 257.968 614.823 257.968 L 614.823 257.968 L 614.823 257.968 Q 614.41 257.968 614.168 258.056 L 614.168 258.056 L 614.168 258.056 Q 613.927 258.144 613.747 258.429 L 613.747 258.429 L 613.747 258.429 Q 613.566 258.715 613.496 259.238 L 613.496 259.238 L 613.496 259.238 Q 613.426 259.761 613.426 260.64 L 613.426 260.64 L 615.395 260.64 L 615.395 261.448 L 613.426 261.448 L 613.426 269.297 Z  M 623.966 268.229 L 623.966 268.229 L 623.966 268.229 Q 623.136 269.385 621.422 269.385 L 621.422 269.385 L 621.422 269.385 Q 619.708 269.385 618.877 268.229 L 618.877 268.229 L 618.877 268.229 Q 618.047 267.073 618.047 264.946 L 618.047 264.946 L 618.047 264.946 Q 618.047 262.723 618.86 261.615 L 618.86 261.615 L 618.86 261.615 Q 619.673 260.508 621.422 260.508 L 621.422 260.508 L 621.422 260.508 Q 623.171 260.508 623.984 261.615 L 623.984 261.615 L 623.984 261.615 Q 624.797 262.723 624.797 264.946 L 624.797 264.946 L 624.797 264.946 Q 624.797 267.073 623.966 268.229 Z  M 622.318 261.602 L 622.318 261.602 L 622.318 261.602 Q 621.932 261.431 621.422 261.431 L 621.422 261.431 L 621.422 261.431 Q 620.912 261.431 620.525 261.602 L 620.525 261.602 L 620.525 261.602 Q 620.139 261.773 619.884 262.072 L 619.884 262.072 L 619.884 262.072 Q 619.629 262.371 619.466 262.819 L 619.466 262.819 L 619.466 262.819 Q 619.304 263.268 619.238 263.786 L 619.238 263.786 L 619.238 263.786 Q 619.172 264.305 619.172 264.946 L 619.172 264.946 L 619.172 264.946 Q 619.172 265.772 619.277 266.383 L 619.277 266.383 L 619.277 266.383 Q 619.383 266.994 619.633 267.478 L 619.633 267.478 L 619.633 267.478 Q 619.884 267.961 620.332 268.207 L 620.332 268.207 L 620.332 268.207 Q 620.78 268.453 621.422 268.453 L 621.422 268.453 L 621.422 268.453 Q 622.063 268.453 622.512 268.207 L 622.512 268.207 L 622.512 268.207 Q 622.96 267.961 623.21 267.478 L 623.21 267.478 L 623.21 267.478 Q 623.461 266.994 623.566 266.383 L 623.566 266.383 L 623.566 266.383 Q 623.672 265.772 623.672 264.946 L 623.672 264.946 L 623.672 264.946 Q 623.672 264.305 623.606 263.786 L 623.606 263.786 L 623.606 263.786 Q 623.54 263.268 623.377 262.819 L 623.377 262.819 L 623.377 262.819 Q 623.215 262.371 622.96 262.072 L 622.96 262.072 L 622.96 262.072 Q 622.705 261.773 622.318 261.602 Z  M 629.102 260.64 L 629.146 261.396 L 629.146 261.396 Q 629.664 261.044 630.459 260.789 L 630.459 260.789 L 630.459 260.789 Q 631.255 260.534 631.923 260.508 L 631.923 260.508 L 631.923 261.448 L 631.923 261.448 Q 631.158 261.448 630.372 261.681 L 630.372 261.681 L 630.372 261.681 Q 629.585 261.914 629.154 262.23 L 629.154 262.23 L 629.154 269.297 L 628.029 269.297 L 628.029 260.64 L 629.102 260.64 Z  M 555.186 268.919 L 555.186 268.919 L 555.186 272.716 L 554.061 272.716 L 554.061 260.64 L 554.983 260.64 L 555.089 261.246 L 555.089 261.246 Q 556.223 260.508 557.576 260.508 L 557.576 260.508 L 557.576 260.508 Q 558.956 260.508 559.743 261.598 L 559.743 261.598 L 559.743 261.598 Q 560.529 262.688 560.529 264.964 L 560.529 264.964 L 560.529 264.964 Q 560.529 267.319 559.729 268.352 L 559.729 268.352 L 559.729 268.352 Q 558.93 269.385 557.313 269.385 L 557.313 269.385 L 557.313 269.385 Q 556.126 269.385 555.186 268.919 Z  M 555.186 262.187 L 555.186 262.187 L 555.186 268.093 L 555.186 268.093 Q 555.959 268.453 556.899 268.453 L 556.899 268.453 L 557.154 268.453 L 557.154 268.453 Q 558.35 268.453 558.877 267.649 L 558.877 267.649 L 558.877 267.649 Q 559.404 266.845 559.404 264.981 L 559.404 264.981 L 559.404 264.981 Q 559.404 263.153 558.934 262.292 L 558.934 262.292 L 558.934 262.292 Q 558.464 261.431 557.436 261.431 L 557.436 261.431 L 557.436 261.431 Q 556.495 261.431 555.186 262.187 Z  M 564.474 266.854 L 564.474 266.854 L 564.474 266.854 Q 564.474 268.488 566.372 268.488 L 566.372 268.488 L 566.372 268.488 Q 566.935 268.488 567.519 268.321 L 567.519 268.321 L 567.519 268.321 Q 568.104 268.154 568.481 267.908 L 568.481 267.908 L 568.481 265.14 L 567.989 265.14 L 567.989 265.14 Q 567.567 265.14 567.216 265.162 L 567.216 265.162 L 567.216 265.162 Q 566.864 265.184 566.434 265.236 L 566.434 265.236 L 566.434 265.236 Q 566.003 265.289 565.678 265.412 L 565.678 265.412 L 565.678 265.412 Q 565.353 265.535 565.067 265.715 L 565.067 265.715 L 565.067 265.715 Q 564.781 265.896 564.627 266.186 L 564.627 266.186 L 564.627 266.186 Q 564.474 266.476 564.474 266.854 Z  M 564.14 261.888 L 563.92 261.018 L 563.92 261.018 Q 565.476 260.508 566.627 260.508 L 566.627 260.508 L 566.627 260.508 Q 567.277 260.508 567.796 260.688 L 567.796 260.688 L 567.796 260.688 Q 568.314 260.868 568.723 261.25 L 568.723 261.25 L 568.723 261.25 Q 569.132 261.633 569.356 262.296 L 569.356 262.296 L 569.356 262.296 Q 569.58 262.96 569.58 263.874 L 569.58 263.874 L 569.58 269.297 L 568.771 269.297 L 568.596 268.717 L 568.596 268.717 Q 568.279 268.972 567.576 269.178 L 567.576 269.178 L 567.576 269.178 Q 566.873 269.385 566.196 269.385 L 566.196 269.385 L 566.196 269.385 Q 564.931 269.385 564.175 268.726 L 564.175 268.726 L 564.175 268.726 Q 563.419 268.066 563.419 266.801 L 563.419 266.801 L 563.419 266.801 Q 563.419 266.396 563.546 266.049 L 563.546 266.049 L 563.546 266.049 Q 563.674 265.702 563.986 265.377 L 563.986 265.377 L 563.986 265.377 Q 564.298 265.052 564.777 264.819 L 564.777 264.819 L 564.777 264.819 Q 565.256 264.586 566.003 264.45 L 566.003 264.45 L 566.003 264.45 Q 566.75 264.313 567.708 264.313 L 567.708 264.313 L 568.481 264.313 L 568.481 264.032 L 568.481 264.032 Q 568.473 262.591 567.976 262.011 L 567.976 262.011 L 567.976 262.011 Q 567.479 261.431 566.574 261.431 L 566.574 261.431 L 566.574 261.431 Q 566.442 261.431 566.289 261.444 L 566.289 261.444 L 566.289 261.444 Q 566.135 261.457 566.021 261.47 L 566.021 261.47 L 566.021 261.47 Q 565.906 261.483 565.708 261.523 L 565.708 261.523 L 565.708 261.523 Q 565.511 261.563 565.418 261.576 L 565.418 261.576 L 565.418 261.576 Q 565.326 261.589 565.089 261.646 L 565.089 261.646 L 565.089 261.646 Q 564.852 261.703 564.79 261.721 L 564.79 261.721 L 564.79 261.721 Q 564.729 261.738 564.452 261.809 L 564.452 261.809 L 564.452 261.809 Q 564.175 261.879 564.14 261.888 L 564.14 261.888 Z  M 574.192 260.64 L 574.236 261.396 L 574.236 261.396 Q 574.755 261.044 575.55 260.789 L 575.55 260.789 L 575.55 260.789 Q 576.346 260.534 577.014 260.508 L 577.014 260.508 L 577.014 261.448 L 577.014 261.448 Q 576.249 261.448 575.462 261.681 L 575.462 261.681 L 575.462 261.681 Q 574.676 261.914 574.245 262.23 L 574.245 262.23 L 574.245 269.297 L 573.12 269.297 L 573.12 260.64 L 574.192 260.64 Z  M 579.517 268.69 L 579.877 267.829 L 579.877 267.829 Q 580.316 268.075 581.015 268.264 L 581.015 268.264 L 581.015 268.264 Q 581.714 268.453 582.355 268.453 L 582.355 268.453 L 582.355 268.453 Q 583.164 268.453 583.661 268.106 L 583.661 268.106 L 583.661 268.106 Q 584.157 267.759 584.157 266.968 L 584.157 266.968 L 584.157 266.968 Q 584.157 266.353 583.876 266.049 L 583.876 266.049 L 583.876 266.049 Q 583.595 265.746 583.006 265.562 L 583.006 265.562 L 581.688 265.148 L 581.688 265.148 Q 581.16 264.981 580.822 264.819 L 580.822 264.819 L 580.822 264.819 Q 580.483 264.656 580.193 264.397 L 580.193 264.397 L 580.193 264.397 Q 579.903 264.138 579.771 263.755 L 579.771 263.755 L 579.771 263.755 Q 579.64 263.373 579.64 262.837 L 579.64 262.837 L 579.64 262.837 Q 579.64 261.659 580.448 261.083 L 580.448 261.083 L 580.448 261.083 Q 581.257 260.508 582.487 260.508 L 582.487 260.508 L 582.487 260.508 Q 583.718 260.508 584.825 261.018 L 584.825 261.018 L 584.491 261.861 L 584.491 261.861 Q 583.586 261.431 582.566 261.431 L 582.566 261.431 L 582.566 261.431 Q 581.749 261.431 581.23 261.778 L 581.23 261.778 L 581.23 261.778 Q 580.712 262.125 580.712 262.881 L 580.712 262.881 L 580.712 262.881 Q 580.712 263.443 580.998 263.672 L 580.998 263.672 L 580.998 263.672 Q 581.283 263.9 582.021 264.138 L 582.021 264.138 L 583.313 264.551 L 583.313 264.551 Q 584.025 264.779 584.425 265.047 L 584.425 265.047 L 584.425 265.047 Q 584.825 265.315 585.041 265.768 L 585.041 265.768 L 585.041 265.768 Q 585.256 266.221 585.256 266.915 L 585.256 266.915 L 585.256 266.915 Q 585.256 267.574 585.027 268.066 L 585.027 268.066 L 585.027 268.066 Q 584.799 268.559 584.39 268.84 L 584.39 268.84 L 584.39 268.84 Q 583.981 269.121 583.489 269.253 L 583.489 269.253 L 583.489 269.253 Q 582.997 269.385 582.408 269.385 L 582.408 269.385 L 582.408 269.385 Q 580.949 269.385 579.517 268.69 L 579.517 268.69 Z  M 591.389 261.431 L 591.389 261.431 L 591.389 261.431 Q 590.281 261.431 589.692 262.2 L 589.692 262.2 L 589.692 262.2 Q 589.104 262.969 588.998 264.384 L 588.998 264.384 L 593.454 264.384 L 593.454 263.944 L 593.454 263.944 Q 593.454 262.793 592.896 262.112 L 592.896 262.112 L 592.896 262.112 Q 592.338 261.431 591.389 261.431 Z  M 591.538 268.453 L 591.538 268.453 L 591.538 268.453 Q 592.892 268.453 593.999 267.75 L 593.999 267.75 L 594.342 268.638 L 594.342 268.638 Q 593.744 269.007 593.006 269.196 L 593.006 269.196 L 593.006 269.196 Q 592.268 269.385 591.6 269.385 L 591.6 269.385 L 591.6 269.385 Q 589.824 269.385 588.849 268.313 L 588.849 268.313 L 588.849 268.313 Q 587.873 267.24 587.873 264.938 L 587.873 264.938 L 587.873 264.938 Q 587.873 262.731 588.822 261.62 L 588.822 261.62 L 588.822 261.62 Q 589.771 260.508 591.38 260.508 L 591.38 260.508 L 591.38 260.508 Q 592.83 260.508 593.665 261.457 L 593.665 261.457 L 593.665 261.457 Q 594.5 262.406 594.5 263.988 L 594.5 263.988 L 594.5 263.988 Q 594.5 264.349 594.43 265.175 L 594.43 265.175 L 588.998 265.175 L 588.998 265.175 Q 589.007 265.957 589.156 266.55 L 589.156 266.55 L 589.156 266.55 Q 589.306 267.144 589.534 267.5 L 589.534 267.5 L 589.534 267.5 Q 589.763 267.855 590.101 268.075 L 590.101 268.075 L 590.101 268.075 Q 590.439 268.295 590.782 268.374 L 590.782 268.374 L 590.782 268.374 Q 591.125 268.453 591.538 268.453 Z  M 598.752 260.64 L 598.796 261.396 L 598.796 261.396 Q 599.314 261.044 600.11 260.789 L 600.11 260.789 L 600.11 260.789 Q 600.905 260.534 601.573 260.508 L 601.573 260.508 L 601.573 261.448 L 601.573 261.448 Q 600.809 261.448 600.022 261.681 L 600.022 261.681 L 600.022 261.681 Q 599.235 261.914 598.805 262.23 L 598.805 262.23 L 598.805 269.297 L 597.68 269.297 L 597.68 260.64 L 598.752 260.64 Z  M 470.688 266.854 L 470.688 266.854 L 470.688 266.854 Q 470.688 268.488 472.586 268.488 L 472.586 268.488 L 472.586 268.488 Q 473.148 268.488 473.733 268.321 L 473.733 268.321 L 473.733 268.321 Q 474.317 268.154 474.695 267.908 L 474.695 267.908 L 474.695 265.14 L 474.203 265.14 L 474.203 265.14 Q 473.781 265.14 473.43 265.162 L 473.43 265.162 L 473.43 265.162 Q 473.078 265.184 472.647 265.236 L 472.647 265.236 L 472.647 265.236 Q 472.217 265.289 471.892 265.412 L 471.892 265.412 L 471.892 265.412 Q 471.566 265.535 471.281 265.715 L 471.281 265.715 L 471.281 265.715 Q 470.995 265.896 470.841 266.186 L 470.841 266.186 L 470.841 266.186 Q 470.688 266.476 470.688 266.854 Z  M 470.354 261.888 L 470.134 261.018 L 470.134 261.018 Q 471.689 260.508 472.841 260.508 L 472.841 260.508 L 472.841 260.508 Q 473.491 260.508 474.01 260.688 L 474.01 260.688 L 474.01 260.688 Q 474.528 260.868 474.937 261.25 L 474.937 261.25 L 474.937 261.25 Q 475.346 261.633 475.57 262.296 L 475.57 262.296 L 475.57 262.296 Q 475.794 262.96 475.794 263.874 L 475.794 263.874 L 475.794 269.297 L 474.985 269.297 L 474.81 268.717 L 474.81 268.717 Q 474.493 268.972 473.79 269.178 L 473.79 269.178 L 473.79 269.178 Q 473.087 269.385 472.41 269.385 L 472.41 269.385 L 472.41 269.385 Q 471.145 269.385 470.389 268.726 L 470.389 268.726 L 470.389 268.726 Q 469.633 268.066 469.633 266.801 L 469.633 266.801 L 469.633 266.801 Q 469.633 266.396 469.76 266.049 L 469.76 266.049 L 469.76 266.049 Q 469.888 265.702 470.2 265.377 L 470.2 265.377 L 470.2 265.377 Q 470.512 265.052 470.991 264.819 L 470.991 264.819 L 470.991 264.819 Q 471.47 264.586 472.217 264.45 L 472.217 264.45 L 472.217 264.45 Q 472.964 264.313 473.922 264.313 L 473.922 264.313 L 474.695 264.313 L 474.695 264.032 L 474.695 264.032 Q 474.687 262.591 474.19 262.011 L 474.19 262.011 L 474.19 262.011 Q 473.693 261.431 472.788 261.431 L 472.788 261.431 L 472.788 261.431 Q 472.656 261.431 472.502 261.444 L 472.502 261.444 L 472.502 261.444 Q 472.349 261.457 472.234 261.47 L 472.234 261.47 L 472.234 261.47 Q 472.12 261.483 471.922 261.523 L 471.922 261.523 L 471.922 261.523 Q 471.725 261.563 471.632 261.576 L 471.632 261.576 L 471.632 261.576 Q 471.54 261.589 471.303 261.646 L 471.303 261.646 L 471.303 261.646 Q 471.065 261.703 471.004 261.721 L 471.004 261.721 L 471.004 261.721 Q 470.942 261.738 470.666 261.809 L 470.666 261.809 L 470.666 261.809 Q 470.389 261.879 470.354 261.888 L 470.354 261.888 Z  M 480.406 260.64 L 480.45 261.396 L 480.45 261.396 Q 480.969 261.044 481.764 260.789 L 481.764 260.789 L 481.764 260.789 Q 482.56 260.534 483.228 260.508 L 483.228 260.508 L 483.228 261.448 L 483.228 261.448 Q 482.463 261.448 481.676 261.681 L 481.676 261.681 L 481.676 261.681 Q 480.89 261.914 480.459 262.23 L 480.459 262.23 L 480.459 269.297 L 479.334 269.297 L 479.334 260.64 L 480.406 260.64 Z  M 489.352 271.362 L 489.352 271.362 L 489.352 271.362 Q 490.775 271.362 491.487 270.879 L 491.487 270.879 L 491.487 270.879 Q 492.199 270.396 492.199 269.728 L 492.199 269.728 L 492.199 269.728 Q 492.199 269.227 491.94 268.976 L 491.94 268.976 L 491.94 268.976 Q 491.681 268.726 490.907 268.726 L 490.907 268.726 L 487.576 268.726 L 487.576 268.726 Q 486.935 269.332 486.935 269.991 L 486.935 269.991 L 486.935 269.991 Q 486.935 270.167 486.957 270.294 L 486.957 270.294 L 486.957 270.294 Q 486.979 270.422 487.049 270.598 L 487.049 270.598 L 487.049 270.598 Q 487.119 270.773 487.282 270.896 L 487.282 270.896 L 487.282 270.896 Q 487.444 271.02 487.695 271.134 L 487.695 271.134 L 487.695 271.134 Q 487.945 271.248 488.372 271.305 L 488.372 271.305 L 488.372 271.305 Q 488.798 271.362 489.352 271.362 Z  M 491.294 260.71 L 491.294 260.71 L 493.816 260.71 L 493.816 261.536 L 491.856 261.536 L 491.856 261.536 Q 492.313 261.879 492.56 262.38 L 492.56 262.38 L 492.56 262.38 Q 492.806 262.881 492.806 263.373 L 492.806 263.373 L 492.806 263.373 Q 492.806 264.568 491.909 265.276 L 491.909 265.276 L 491.909 265.276 Q 491.013 265.983 489.554 265.983 L 489.554 265.983 L 489.554 265.983 Q 488.552 265.983 487.743 265.658 L 487.743 265.658 L 487.743 265.658 Q 487.163 266.599 487.163 267.064 L 487.163 267.064 L 487.163 267.064 Q 487.163 267.275 487.233 267.473 L 487.233 267.473 L 487.233 267.473 Q 487.304 267.671 487.374 267.759 L 487.374 267.759 L 487.436 267.847 L 490.767 267.847 L 490.767 267.847 Q 492.155 267.847 492.705 268.277 L 492.705 268.277 L 492.705 268.277 Q 493.254 268.708 493.254 269.657 L 493.254 269.657 L 493.254 269.657 Q 493.254 270.018 493.144 270.36 L 493.144 270.36 L 493.144 270.36 Q 493.034 270.703 492.753 271.059 L 492.753 271.059 L 492.753 271.059 Q 492.472 271.415 492.041 271.683 L 492.041 271.683 L 492.041 271.683 Q 491.61 271.951 490.903 272.118 L 490.903 272.118 L 490.903 272.118 Q 490.195 272.285 489.299 272.285 L 489.299 272.285 L 489.299 272.285 Q 488.464 272.285 487.818 272.131 L 487.818 272.131 L 487.818 272.131 Q 487.172 271.978 486.803 271.753 L 486.803 271.753 L 486.803 271.753 Q 486.434 271.529 486.201 271.222 L 486.201 271.222 L 486.201 271.222 Q 485.968 270.914 485.889 270.65 L 485.889 270.65 L 485.889 270.65 Q 485.81 270.387 485.81 270.114 L 485.81 270.114 L 485.81 270.114 Q 485.81 269.622 486.139 269.13 L 486.139 269.13 L 486.139 269.13 Q 486.469 268.638 486.785 268.453 L 486.785 268.453 L 486.785 268.453 Q 486.495 268.26 486.328 267.908 L 486.328 267.908 L 486.328 267.908 Q 486.161 267.557 486.161 267.214 L 486.161 267.214 L 486.161 267.214 Q 486.161 266.748 486.363 266.335 L 486.363 266.335 L 486.363 266.335 Q 486.565 265.922 487.066 265.21 L 487.066 265.21 L 487.066 265.21 Q 486.091 264.393 486.091 263.25 L 486.091 263.25 L 486.091 263.25 Q 486.091 261.87 487.044 261.189 L 487.044 261.189 L 487.044 261.189 Q 487.998 260.508 489.51 260.508 L 489.51 260.508 L 489.51 260.508 Q 489.905 260.508 490.433 260.609 L 490.433 260.609 L 490.433 260.609 Q 490.96 260.71 491.294 260.71 Z  M 489.563 261.343 L 489.563 261.343 L 489.563 261.343 Q 488.35 261.343 487.783 261.861 L 487.783 261.861 L 487.783 261.861 Q 487.216 262.38 487.216 263.241 L 487.216 263.241 L 487.216 263.241 Q 487.216 264.155 487.813 264.639 L 487.813 264.639 L 487.813 264.639 Q 488.411 265.122 489.475 265.122 L 489.475 265.122 L 489.475 265.122 Q 490.6 265.122 491.188 264.674 L 491.188 264.674 L 491.188 264.674 Q 491.777 264.226 491.777 263.338 L 491.777 263.338 L 491.777 263.338 Q 491.777 262.477 491.215 261.91 L 491.215 261.91 L 491.215 261.91 Q 490.652 261.343 489.563 261.343 Z  M 501.672 267.864 L 501.672 267.864 L 501.672 260.64 L 502.797 260.64 L 502.797 269.297 L 501.874 269.297 L 501.795 268.734 L 501.795 268.734 Q 500.96 269.13 500.375 269.257 L 500.375 269.257 L 500.375 269.257 Q 499.791 269.385 499.079 269.385 L 499.079 269.385 L 499.079 269.385 Q 497.743 269.385 497.119 268.682 L 497.119 268.682 L 497.119 268.682 Q 496.495 267.979 496.495 266.476 L 496.495 266.476 L 496.495 260.64 L 497.62 260.64 L 497.62 266.52 L 497.62 266.52 Q 497.62 267.574 497.967 268.014 L 497.967 268.014 L 497.967 268.014 Q 498.314 268.453 499.193 268.453 L 499.193 268.453 L 499.193 268.453 Q 499.633 268.453 499.91 268.431 L 499.91 268.431 L 499.91 268.431 Q 500.187 268.409 500.683 268.273 L 500.683 268.273 L 500.683 268.273 Q 501.18 268.137 501.672 267.864 Z  M 514.528 260.508 L 514.528 260.508 L 514.528 260.508 Q 515.768 260.508 516.436 261.233 L 516.436 261.233 L 516.436 261.233 Q 517.104 261.958 517.104 263.399 L 517.104 263.399 L 517.104 269.297 L 515.979 269.297 L 515.979 263.391 L 515.979 263.391 Q 515.979 261.431 514.563 261.431 L 514.563 261.431 L 514.563 261.431 Q 513.122 261.431 512.217 262.002 L 512.217 262.002 L 512.217 262.002 Q 512.234 262.107 512.278 262.6 L 512.278 262.6 L 512.278 262.6 Q 512.322 263.092 512.322 263.461 L 512.322 263.461 L 512.322 269.297 L 511.197 269.297 L 511.197 263.426 L 511.197 263.426 Q 511.197 262.362 510.89 261.896 L 510.89 261.896 L 510.89 261.896 Q 510.582 261.431 509.809 261.422 L 509.809 261.422 L 509.791 261.422 L 509.791 261.422 Q 509.316 261.422 508.657 261.576 L 508.657 261.576 L 508.657 261.576 Q 507.998 261.729 507.392 262.063 L 507.392 262.063 L 507.392 269.297 L 506.267 269.297 L 506.267 260.64 L 507.304 260.64 L 507.348 261.193 L 507.348 261.193 Q 508.587 260.508 509.958 260.508 L 509.958 260.508 L 509.958 260.508 Q 511.32 260.508 511.804 261.229 L 511.804 261.229 L 511.804 261.229 Q 513.14 260.508 514.528 260.508 Z  M 523.693 261.431 L 523.693 261.431 L 523.693 261.431 Q 522.586 261.431 521.997 262.2 L 521.997 262.2 L 521.997 262.2 Q 521.408 262.969 521.303 264.384 L 521.303 264.384 L 525.759 264.384 L 525.759 263.944 L 525.759 263.944 Q 525.759 262.793 525.201 262.112 L 525.201 262.112 L 525.201 262.112 Q 524.643 261.431 523.693 261.431 Z  M 523.843 268.453 L 523.843 268.453 L 523.843 268.453 Q 525.196 268.453 526.304 267.75 L 526.304 267.75 L 526.646 268.638 L 526.646 268.638 Q 526.049 269.007 525.311 269.196 L 525.311 269.196 L 525.311 269.196 Q 524.572 269.385 523.904 269.385 L 523.904 269.385 L 523.904 269.385 Q 522.129 269.385 521.153 268.313 L 521.153 268.313 L 521.153 268.313 Q 520.178 267.24 520.178 264.938 L 520.178 264.938 L 520.178 264.938 Q 520.178 262.731 521.127 261.62 L 521.127 261.62 L 521.127 261.62 Q 522.076 260.508 523.685 260.508 L 523.685 260.508 L 523.685 260.508 Q 525.135 260.508 525.97 261.457 L 525.97 261.457 L 525.97 261.457 Q 526.805 262.406 526.805 263.988 L 526.805 263.988 L 526.805 263.988 Q 526.805 264.349 526.734 265.175 L 526.734 265.175 L 521.303 265.175 L 521.303 265.175 Q 521.312 265.957 521.461 266.55 L 521.461 266.55 L 521.461 266.55 Q 521.61 267.144 521.839 267.5 L 521.839 267.5 L 521.839 267.5 Q 522.067 267.855 522.406 268.075 L 522.406 268.075 L 522.406 268.075 Q 522.744 268.295 523.087 268.374 L 523.087 268.374 L 523.087 268.374 Q 523.43 268.453 523.843 268.453 Z  M 531.057 262.072 L 531.057 262.072 L 531.057 269.297 L 529.932 269.297 L 529.932 260.64 L 530.854 260.64 L 530.934 261.202 L 530.934 261.202 Q 531.795 260.798 532.375 260.653 L 532.375 260.653 L 532.375 260.653 Q 532.955 260.508 533.623 260.508 L 533.623 260.508 L 533.623 260.508 Q 534.959 260.508 535.596 261.237 L 535.596 261.237 L 535.596 261.237 Q 536.233 261.967 536.233 263.47 L 536.233 263.47 L 536.233 269.297 L 535.108 269.297 L 535.108 263.426 L 535.108 263.426 Q 535.108 262.354 534.77 261.892 L 534.77 261.892 L 534.77 261.892 Q 534.432 261.431 533.562 261.431 L 533.562 261.431 L 533.562 261.431 Q 532.226 261.431 531.057 262.072 Z  M 542.507 269.385 L 542.507 269.385 L 542.507 269.385 Q 541.804 269.367 541.351 269.156 L 541.351 269.156 L 541.351 269.156 Q 540.898 268.945 540.644 268.493 L 540.644 268.493 L 540.644 268.493 Q 540.389 268.04 540.292 267.429 L 540.292 267.429 L 540.292 267.429 Q 540.195 266.818 540.195 265.887 L 540.195 265.887 L 540.195 261.431 L 538.851 261.431 L 538.851 260.64 L 540.23 260.64 L 540.45 258.161 L 541.32 258.161 L 541.32 260.64 L 544.027 260.64 L 544.027 261.431 L 541.32 261.431 L 541.32 265.904 L 541.32 265.904 Q 541.32 266.748 541.413 267.275 L 541.413 267.275 L 541.413 267.275 Q 541.505 267.803 541.72 268.053 L 541.72 268.053 L 541.72 268.053 Q 541.936 268.304 542.173 268.378 L 542.173 268.378 L 542.173 268.378 Q 542.41 268.453 542.806 268.453 L 542.806 268.453 L 542.806 268.453 Q 543.711 268.453 544.124 268.392 L 544.124 268.392 L 544.168 269.297 L 544.168 269.297 Q 543.465 269.385 542.507 269.385 Z  M 395.541 269.385 L 395.541 269.385 L 395.541 269.385 Q 394.838 269.367 394.385 269.156 L 394.385 269.156 L 394.385 269.156 Q 393.933 268.945 393.678 268.493 L 393.678 268.493 L 393.678 268.493 Q 393.423 268.04 393.326 267.429 L 393.326 267.429 L 393.326 267.429 Q 393.229 266.818 393.229 265.887 L 393.229 265.887 L 393.229 261.431 L 391.885 261.431 L 391.885 260.64 L 393.265 260.64 L 393.484 258.161 L 394.354 258.161 L 394.354 260.64 L 397.062 260.64 L 397.062 261.431 L 394.354 261.431 L 394.354 265.904 L 394.354 265.904 Q 394.354 266.748 394.447 267.275 L 394.447 267.275 L 394.447 267.275 Q 394.539 267.803 394.754 268.053 L 394.754 268.053 L 394.754 268.053 Q 394.97 268.304 395.207 268.378 L 395.207 268.378 L 395.207 268.378 Q 395.444 268.453 395.84 268.453 L 395.84 268.453 L 395.84 268.453 Q 396.745 268.453 397.158 268.392 L 397.158 268.392 L 397.202 269.297 L 397.202 269.297 Q 396.499 269.385 395.541 269.385 Z  M 401.419 272.725 L 401.419 272.725 L 401.419 272.725 Q 400.769 272.725 399.969 272.417 L 399.969 272.417 L 400.145 271.521 L 400.153 271.512 L 400.153 271.512 Q 400.944 271.749 401.34 271.749 L 401.34 271.749 L 401.34 271.749 Q 401.472 271.749 401.586 271.718 L 401.586 271.718 L 401.586 271.718 Q 401.7 271.688 401.797 271.613 L 401.797 271.613 L 401.797 271.613 Q 401.894 271.538 401.968 271.468 L 401.968 271.468 L 401.968 271.468 Q 402.043 271.397 402.122 271.257 L 402.122 271.257 L 402.122 271.257 Q 402.201 271.116 402.254 271.02 L 402.254 271.02 L 402.254 271.02 Q 402.307 270.923 402.373 270.734 L 402.373 270.734 L 402.373 270.734 Q 402.438 270.545 402.478 270.439 L 402.478 270.439 L 402.478 270.439 Q 402.518 270.334 402.588 270.11 L 402.588 270.11 L 402.588 270.11 Q 402.658 269.886 402.693 269.78 L 402.693 269.78 L 402.931 269.068 L 399.371 260.64 L 400.575 260.64 L 403.423 267.838 L 405.752 260.64 L 406.947 260.64 L 403.906 269.438 L 403.906 269.438 Q 403.651 270.176 403.489 270.593 L 403.489 270.593 L 403.489 270.593 Q 403.326 271.011 403.093 271.481 L 403.093 271.481 L 403.093 271.481 Q 402.86 271.951 402.641 272.184 L 402.641 272.184 L 402.641 272.184 Q 402.421 272.417 402.109 272.571 L 402.109 272.571 L 402.109 272.571 Q 401.797 272.725 401.419 272.725 Z  M 410.733 268.919 L 410.733 268.919 L 410.733 272.716 L 409.608 272.716 L 409.608 260.64 L 410.531 260.64 L 410.637 261.246 L 410.637 261.246 Q 411.771 260.508 413.124 260.508 L 413.124 260.508 L 413.124 260.508 Q 414.504 260.508 415.291 261.598 L 415.291 261.598 L 415.291 261.598 Q 416.077 262.688 416.077 264.964 L 416.077 264.964 L 416.077 264.964 Q 416.077 267.319 415.277 268.352 L 415.277 268.352 L 415.277 268.352 Q 414.478 269.385 412.86 269.385 L 412.86 269.385 L 412.86 269.385 Q 411.674 269.385 410.733 268.919 Z  M 410.733 262.187 L 410.733 262.187 L 410.733 268.093 L 410.733 268.093 Q 411.507 268.453 412.447 268.453 L 412.447 268.453 L 412.702 268.453 L 412.702 268.453 Q 413.897 268.453 414.425 267.649 L 414.425 267.649 L 414.425 267.649 Q 414.952 266.845 414.952 264.981 L 414.952 264.981 L 414.952 264.981 Q 414.952 263.153 414.482 262.292 L 414.482 262.292 L 414.482 262.292 Q 414.012 261.431 412.983 261.431 L 412.983 261.431 L 412.983 261.431 Q 412.043 261.431 410.733 262.187 Z  M 422.474 261.431 L 422.474 261.431 L 422.474 261.431 Q 421.366 261.431 420.777 262.2 L 420.777 262.2 L 420.777 262.2 Q 420.188 262.969 420.083 264.384 L 420.083 264.384 L 424.539 264.384 L 424.539 263.944 L 424.539 263.944 Q 424.539 262.793 423.981 262.112 L 423.981 262.112 L 423.981 262.112 Q 423.423 261.431 422.474 261.431 Z  M 422.623 268.453 L 422.623 268.453 L 422.623 268.453 Q 423.977 268.453 425.084 267.75 L 425.084 267.75 L 425.427 268.638 L 425.427 268.638 Q 424.829 269.007 424.091 269.196 L 424.091 269.196 L 424.091 269.196 Q 423.353 269.385 422.685 269.385 L 422.685 269.385 L 422.685 269.385 Q 420.909 269.385 419.934 268.313 L 419.934 268.313 L 419.934 268.313 Q 418.958 267.24 418.958 264.938 L 418.958 264.938 L 418.958 264.938 Q 418.958 262.731 419.907 261.62 L 419.907 261.62 L 419.907 261.62 Q 420.856 260.508 422.465 260.508 L 422.465 260.508 L 422.465 260.508 Q 423.915 260.508 424.75 261.457 L 424.75 261.457 L 424.75 261.457 Q 425.585 262.406 425.585 263.988 L 425.585 263.988 L 425.585 263.988 Q 425.585 264.349 425.515 265.175 L 425.515 265.175 L 420.083 265.175 L 420.083 265.175 Q 420.092 265.957 420.241 266.55 L 420.241 266.55 L 420.241 266.55 Q 420.391 267.144 420.619 267.5 L 420.619 267.5 L 420.619 267.5 Q 420.848 267.855 421.186 268.075 L 421.186 268.075 L 421.186 268.075 Q 421.524 268.295 421.867 268.374 L 421.867 268.374 L 421.867 268.374 Q 422.21 268.453 422.623 268.453 Z  M 428.439 268.69 L 428.8 267.829 L 428.8 267.829 Q 429.239 268.075 429.938 268.264 L 429.938 268.264 L 429.938 268.264 Q 430.637 268.453 431.278 268.453 L 431.278 268.453 L 431.278 268.453 Q 432.087 268.453 432.583 268.106 L 432.583 268.106 L 432.583 268.106 Q 433.08 267.759 433.08 266.968 L 433.08 266.968 L 433.08 266.968 Q 433.08 266.353 432.799 266.049 L 432.799 266.049 L 432.799 266.049 Q 432.518 265.746 431.929 265.562 L 431.929 265.562 L 430.61 265.148 L 430.61 265.148 Q 430.083 264.981 429.745 264.819 L 429.745 264.819 L 429.745 264.819 Q 429.406 264.656 429.116 264.397 L 429.116 264.397 L 429.116 264.397 Q 428.826 264.138 428.694 263.755 L 428.694 263.755 L 428.694 263.755 Q 428.563 263.373 428.563 262.837 L 428.563 262.837 L 428.563 262.837 Q 428.563 261.659 429.371 261.083 L 429.371 261.083 L 429.371 261.083 Q 430.18 260.508 431.41 260.508 L 431.41 260.508 L 431.41 260.508 Q 432.641 260.508 433.748 261.018 L 433.748 261.018 L 433.414 261.861 L 433.414 261.861 Q 432.509 261.431 431.489 261.431 L 431.489 261.431 L 431.489 261.431 Q 430.672 261.431 430.153 261.778 L 430.153 261.778 L 430.153 261.778 Q 429.635 262.125 429.635 262.881 L 429.635 262.881 L 429.635 262.881 Q 429.635 263.443 429.92 263.672 L 429.92 263.672 L 429.92 263.672 Q 430.206 263.9 430.944 264.138 L 430.944 264.138 L 432.236 264.551 L 432.236 264.551 Q 432.948 264.779 433.348 265.047 L 433.348 265.047 L 433.348 265.047 Q 433.748 265.315 433.963 265.768 L 433.963 265.768 L 433.963 265.768 Q 434.179 266.221 434.179 266.915 L 434.179 266.915 L 434.179 266.915 Q 434.179 267.574 433.95 268.066 L 433.95 268.066 L 433.95 268.066 Q 433.722 268.559 433.313 268.84 L 433.313 268.84 L 433.313 268.84 Q 432.904 269.121 432.412 269.253 L 432.412 269.253 L 432.412 269.253 Q 431.92 269.385 431.331 269.385 L 431.331 269.385 L 431.331 269.385 Q 429.872 269.385 428.439 268.69 L 428.439 268.69 Z  M 437.859 266.854 L 437.859 266.854 L 437.859 266.854 Q 437.859 268.488 439.758 268.488 L 439.758 268.488 L 439.758 268.488 Q 440.32 268.488 440.905 268.321 L 440.905 268.321 L 440.905 268.321 Q 441.489 268.154 441.867 267.908 L 441.867 267.908 L 441.867 265.14 L 441.375 265.14 L 441.375 265.14 Q 440.953 265.14 440.602 265.162 L 440.602 265.162 L 440.602 265.162 Q 440.25 265.184 439.819 265.236 L 439.819 265.236 L 439.819 265.236 Q 439.389 265.289 439.063 265.412 L 439.063 265.412 L 439.063 265.412 Q 438.738 265.535 438.453 265.715 L 438.453 265.715 L 438.453 265.715 Q 438.167 265.896 438.013 266.186 L 438.013 266.186 L 438.013 266.186 Q 437.859 266.476 437.859 266.854 Z  M 437.525 261.888 L 437.306 261.018 L 437.306 261.018 Q 438.861 260.508 440.013 260.508 L 440.013 260.508 L 440.013 260.508 Q 440.663 260.508 441.182 260.688 L 441.182 260.688 L 441.182 260.688 Q 441.7 260.868 442.109 261.25 L 442.109 261.25 L 442.109 261.25 Q 442.518 261.633 442.742 262.296 L 442.742 262.296 L 442.742 262.296 Q 442.966 262.96 442.966 263.874 L 442.966 263.874 L 442.966 269.297 L 442.157 269.297 L 441.981 268.717 L 441.981 268.717 Q 441.665 268.972 440.962 269.178 L 440.962 269.178 L 440.962 269.178 Q 440.259 269.385 439.582 269.385 L 439.582 269.385 L 439.582 269.385 Q 438.316 269.385 437.561 268.726 L 437.561 268.726 L 437.561 268.726 Q 436.805 268.066 436.805 266.801 L 436.805 266.801 L 436.805 266.801 Q 436.805 266.396 436.932 266.049 L 436.932 266.049 L 436.932 266.049 Q 437.06 265.702 437.372 265.377 L 437.372 265.377 L 437.372 265.377 Q 437.684 265.052 438.163 264.819 L 438.163 264.819 L 438.163 264.819 Q 438.642 264.586 439.389 264.45 L 439.389 264.45 L 439.389 264.45 Q 440.136 264.313 441.094 264.313 L 441.094 264.313 L 441.867 264.313 L 441.867 264.032 L 441.867 264.032 Q 441.858 262.591 441.362 262.011 L 441.362 262.011 L 441.362 262.011 Q 440.865 261.431 439.96 261.431 L 439.96 261.431 L 439.96 261.431 Q 439.828 261.431 439.674 261.444 L 439.674 261.444 L 439.674 261.444 Q 439.521 261.457 439.406 261.47 L 439.406 261.47 L 439.406 261.47 Q 439.292 261.483 439.094 261.523 L 439.094 261.523 L 439.094 261.523 Q 438.896 261.563 438.804 261.576 L 438.804 261.576 L 438.804 261.576 Q 438.712 261.589 438.475 261.646 L 438.475 261.646 L 438.475 261.646 Q 438.237 261.703 438.176 261.721 L 438.176 261.721 L 438.176 261.721 Q 438.114 261.738 437.837 261.809 L 437.837 261.809 L 437.837 261.809 Q 437.561 261.879 437.525 261.888 L 437.525 261.888 Z  M 448.58 269.297 L 447.455 269.297 L 447.455 261.448 L 445.768 261.448 L 445.768 260.64 L 447.455 260.64 L 447.455 260.64 Q 447.455 259.646 447.547 259.018 L 447.547 259.018 L 447.547 259.018 Q 447.64 258.39 447.89 257.933 L 447.89 257.933 L 447.89 257.933 Q 448.141 257.476 448.584 257.273 L 448.584 257.273 L 448.584 257.273 Q 449.028 257.071 449.731 257.045 L 449.731 257.045 L 449.731 257.045 Q 450.689 257.045 451.357 257.273 L 451.357 257.273 L 451.217 258.152 L 451.217 258.152 Q 451.032 258.1 450.619 258.034 L 450.619 258.034 L 450.619 258.034 Q 450.206 257.968 449.978 257.968 L 449.978 257.968 L 449.978 257.968 Q 449.564 257.968 449.323 258.056 L 449.323 258.056 L 449.323 258.056 Q 449.081 258.144 448.901 258.429 L 448.901 258.429 L 448.901 258.429 Q 448.721 258.715 448.65 259.238 L 448.65 259.238 L 448.65 259.238 Q 448.58 259.761 448.58 260.64 L 448.58 260.64 L 450.549 260.64 L 450.549 261.448 L 448.58 261.448 L 448.58 269.297 Z  M 456.717 261.431 L 456.717 261.431 L 456.717 261.431 Q 455.609 261.431 455.021 262.2 L 455.021 262.2 L 455.021 262.2 Q 454.432 262.969 454.326 264.384 L 454.326 264.384 L 458.782 264.384 L 458.782 263.944 L 458.782 263.944 Q 458.782 262.793 458.224 262.112 L 458.224 262.112 L 458.224 262.112 Q 457.666 261.431 456.717 261.431 Z  M 456.866 268.453 L 456.866 268.453 L 456.866 268.453 Q 458.22 268.453 459.327 267.75 L 459.327 267.75 L 459.67 268.638 L 459.67 268.638 Q 459.072 269.007 458.334 269.196 L 458.334 269.196 L 458.334 269.196 Q 457.596 269.385 456.928 269.385 L 456.928 269.385 L 456.928 269.385 Q 455.152 269.385 454.177 268.313 L 454.177 268.313 L 454.177 268.313 Q 453.201 267.24 453.201 264.938 L 453.201 264.938 L 453.201 264.938 Q 453.201 262.731 454.15 261.62 L 454.15 261.62 L 454.15 261.62 Q 455.1 260.508 456.708 260.508 L 456.708 260.508 L 456.708 260.508 Q 458.158 260.508 458.993 261.457 L 458.993 261.457 L 458.993 261.457 Q 459.828 262.406 459.828 263.988 L 459.828 263.988 L 459.828 263.988 Q 459.828 264.349 459.758 265.175 L 459.758 265.175 L 454.326 265.175 L 454.326 265.175 Q 454.335 265.957 454.484 266.55 L 454.484 266.55 L 454.484 266.55 Q 454.634 267.144 454.862 267.5 L 454.862 267.5 L 454.862 267.5 Q 455.091 267.855 455.429 268.075 L 455.429 268.075 L 455.429 268.075 Q 455.768 268.295 456.11 268.374 L 456.11 268.374 L 456.11 268.374 Q 456.453 268.453 456.866 268.453 Z  M 352.229 261.431 L 352.229 261.431 L 352.229 261.431 Q 351.122 261.431 350.533 262.2 L 350.533 262.2 L 350.533 262.2 Q 349.944 262.969 349.839 264.384 L 349.839 264.384 L 354.295 264.384 L 354.295 263.944 L 354.295 263.944 Q 354.295 262.793 353.737 262.112 L 353.737 262.112 L 353.737 262.112 Q 353.179 261.431 352.229 261.431 Z  M 352.379 268.453 L 352.379 268.453 L 352.379 268.453 Q 353.732 268.453 354.84 267.75 L 354.84 267.75 L 355.183 268.638 L 355.183 268.638 Q 354.585 269.007 353.847 269.196 L 353.847 269.196 L 353.847 269.196 Q 353.108 269.385 352.44 269.385 L 352.44 269.385 L 352.44 269.385 Q 350.665 269.385 349.689 268.313 L 349.689 268.313 L 349.689 268.313 Q 348.714 267.24 348.714 264.938 L 348.714 264.938 L 348.714 264.938 Q 348.714 262.731 349.663 261.62 L 349.663 261.62 L 349.663 261.62 Q 350.612 260.508 352.221 260.508 L 352.221 260.508 L 352.221 260.508 Q 353.671 260.508 354.506 261.457 L 354.506 261.457 L 354.506 261.457 Q 355.341 262.406 355.341 263.988 L 355.341 263.988 L 355.341 263.988 Q 355.341 264.349 355.271 265.175 L 355.271 265.175 L 349.839 265.175 L 349.839 265.175 Q 349.848 265.957 349.997 266.55 L 349.997 266.55 L 349.997 266.55 Q 350.146 267.144 350.375 267.5 L 350.375 267.5 L 350.375 267.5 Q 350.604 267.855 350.942 268.075 L 350.942 268.075 L 350.942 268.075 Q 351.28 268.295 351.623 268.374 L 351.623 268.374 L 351.623 268.374 Q 351.966 268.453 352.379 268.453 Z  M 359.25 266.854 L 359.25 266.854 L 359.25 266.854 Q 359.25 268.488 361.148 268.488 L 361.148 268.488 L 361.148 268.488 Q 361.711 268.488 362.295 268.321 L 362.295 268.321 L 362.295 268.321 Q 362.88 268.154 363.258 267.908 L 363.258 267.908 L 363.258 265.14 L 362.766 265.14 L 362.766 265.14 Q 362.344 265.14 361.992 265.162 L 361.992 265.162 L 361.992 265.162 Q 361.641 265.184 361.21 265.236 L 361.21 265.236 L 361.21 265.236 Q 360.779 265.289 360.454 265.412 L 360.454 265.412 L 360.454 265.412 Q 360.129 265.535 359.843 265.715 L 359.843 265.715 L 359.843 265.715 Q 359.558 265.896 359.404 266.186 L 359.404 266.186 L 359.404 266.186 Q 359.25 266.476 359.25 266.854 Z  M 358.916 261.888 L 358.696 261.018 L 358.696 261.018 Q 360.252 260.508 361.403 260.508 L 361.403 260.508 L 361.403 260.508 Q 362.054 260.508 362.572 260.688 L 362.572 260.688 L 362.572 260.688 Q 363.091 260.868 363.5 261.25 L 363.5 261.25 L 363.5 261.25 Q 363.908 261.633 364.132 262.296 L 364.132 262.296 L 364.132 262.296 Q 364.356 262.96 364.356 263.874 L 364.356 263.874 L 364.356 269.297 L 363.548 269.297 L 363.372 268.717 L 363.372 268.717 Q 363.056 268.972 362.353 269.178 L 362.353 269.178 L 362.353 269.178 Q 361.649 269.385 360.973 269.385 L 360.973 269.385 L 360.973 269.385 Q 359.707 269.385 358.951 268.726 L 358.951 268.726 L 358.951 268.726 Q 358.195 268.066 358.195 266.801 L 358.195 266.801 L 358.195 266.801 Q 358.195 266.396 358.323 266.049 L 358.323 266.049 L 358.323 266.049 Q 358.45 265.702 358.762 265.377 L 358.762 265.377 L 358.762 265.377 Q 359.074 265.052 359.553 264.819 L 359.553 264.819 L 359.553 264.819 Q 360.032 264.586 360.779 264.45 L 360.779 264.45 L 360.779 264.45 Q 361.526 264.313 362.484 264.313 L 362.484 264.313 L 363.258 264.313 L 363.258 264.032 L 363.258 264.032 Q 363.249 262.591 362.752 262.011 L 362.752 262.011 L 362.752 262.011 Q 362.256 261.431 361.351 261.431 L 361.351 261.431 L 361.351 261.431 Q 361.219 261.431 361.065 261.444 L 361.065 261.444 L 361.065 261.444 Q 360.911 261.457 360.797 261.47 L 360.797 261.47 L 360.797 261.47 Q 360.683 261.483 360.485 261.523 L 360.485 261.523 L 360.485 261.523 Q 360.287 261.563 360.195 261.576 L 360.195 261.576 L 360.195 261.576 Q 360.103 261.589 359.865 261.646 L 359.865 261.646 L 359.865 261.646 Q 359.628 261.703 359.566 261.721 L 359.566 261.721 L 359.566 261.721 Q 359.505 261.738 359.228 261.809 L 359.228 261.809 L 359.228 261.809 Q 358.951 261.879 358.916 261.888 L 358.916 261.888 Z  M 367.571 268.69 L 367.932 267.829 L 367.932 267.829 Q 368.371 268.075 369.07 268.264 L 369.07 268.264 L 369.07 268.264 Q 369.769 268.453 370.41 268.453 L 370.41 268.453 L 370.41 268.453 Q 371.219 268.453 371.715 268.106 L 371.715 268.106 L 371.715 268.106 Q 372.212 267.759 372.212 266.968 L 372.212 266.968 L 372.212 266.968 Q 372.212 266.353 371.931 266.049 L 371.931 266.049 L 371.931 266.049 Q 371.649 265.746 371.061 265.562 L 371.061 265.562 L 369.742 265.148 L 369.742 265.148 Q 369.215 264.981 368.876 264.819 L 368.876 264.819 L 368.876 264.819 Q 368.538 264.656 368.248 264.397 L 368.248 264.397 L 368.248 264.397 Q 367.958 264.138 367.826 263.755 L 367.826 263.755 L 367.826 263.755 Q 367.694 263.373 367.694 262.837 L 367.694 262.837 L 367.694 262.837 Q 367.694 261.659 368.503 261.083 L 368.503 261.083 L 368.503 261.083 Q 369.312 260.508 370.542 260.508 L 370.542 260.508 L 370.542 260.508 Q 371.772 260.508 372.88 261.018 L 372.88 261.018 L 372.546 261.861 L 372.546 261.861 Q 371.641 261.431 370.621 261.431 L 370.621 261.431 L 370.621 261.431 Q 369.804 261.431 369.285 261.778 L 369.285 261.778 L 369.285 261.778 Q 368.767 262.125 368.767 262.881 L 368.767 262.881 L 368.767 262.881 Q 368.767 263.443 369.052 263.672 L 369.052 263.672 L 369.052 263.672 Q 369.338 263.9 370.076 264.138 L 370.076 264.138 L 371.368 264.551 L 371.368 264.551 Q 372.08 264.779 372.48 265.047 L 372.48 265.047 L 372.48 265.047 Q 372.88 265.315 373.095 265.768 L 373.095 265.768 L 373.095 265.768 Q 373.311 266.221 373.311 266.915 L 373.311 266.915 L 373.311 266.915 Q 373.311 267.574 373.082 268.066 L 373.082 268.066 L 373.082 268.066 Q 372.854 268.559 372.445 268.84 L 372.445 268.84 L 372.445 268.84 Q 372.036 269.121 371.544 269.253 L 371.544 269.253 L 371.544 269.253 Q 371.052 269.385 370.463 269.385 L 370.463 269.385 L 370.463 269.385 Q 369.004 269.385 367.571 268.69 L 367.571 268.69 Z  M 377.483 272.725 L 377.483 272.725 L 377.483 272.725 Q 376.833 272.725 376.033 272.417 L 376.033 272.417 L 376.209 271.521 L 376.218 271.512 L 376.218 271.512 Q 377.009 271.749 377.404 271.749 L 377.404 271.749 L 377.404 271.749 Q 377.536 271.749 377.65 271.718 L 377.65 271.718 L 377.65 271.718 Q 377.765 271.688 377.861 271.613 L 377.861 271.613 L 377.861 271.613 Q 377.958 271.538 378.033 271.468 L 378.033 271.468 L 378.033 271.468 Q 378.107 271.397 378.187 271.257 L 378.187 271.257 L 378.187 271.257 Q 378.266 271.116 378.318 271.02 L 378.318 271.02 L 378.318 271.02 Q 378.371 270.923 378.437 270.734 L 378.437 270.734 L 378.437 270.734 Q 378.503 270.545 378.542 270.439 L 378.542 270.439 L 378.542 270.439 Q 378.582 270.334 378.652 270.11 L 378.652 270.11 L 378.652 270.11 Q 378.723 269.886 378.758 269.78 L 378.758 269.78 L 378.995 269.068 L 375.436 260.64 L 376.64 260.64 L 379.487 267.838 L 381.816 260.64 L 383.012 260.64 L 379.971 269.438 L 379.971 269.438 Q 379.716 270.176 379.553 270.593 L 379.553 270.593 L 379.553 270.593 Q 379.391 271.011 379.158 271.481 L 379.158 271.481 L 379.158 271.481 Q 378.925 271.951 378.705 272.184 L 378.705 272.184 L 378.705 272.184 Q 378.485 272.417 378.173 272.571 L 378.173 272.571 L 378.173 272.571 Q 377.861 272.725 377.483 272.725 Z  M 303.4 258.407 L 303.198 259.304 L 303.198 259.304 Q 301.845 258.794 300.518 258.794 L 300.518 258.794 L 300.518 258.794 Q 298.048 258.794 298.048 260.754 L 298.048 260.754 L 298.048 260.754 Q 298.048 261.475 298.373 261.866 L 298.373 261.866 L 298.373 261.866 Q 298.698 262.257 299.665 262.608 L 299.665 262.608 L 300.667 262.969 L 300.667 262.969 Q 300.764 263.004 300.957 263.074 L 300.957 263.074 L 300.957 263.074 Q 301.344 263.206 301.542 263.281 L 301.542 263.281 L 301.542 263.281 Q 301.739 263.355 302.078 263.518 L 302.078 263.518 L 302.078 263.518 Q 302.416 263.681 302.601 263.821 L 302.601 263.821 L 302.601 263.821 Q 302.785 263.962 303.022 264.204 L 303.022 264.204 L 303.022 264.204 Q 303.26 264.445 303.378 264.713 L 303.378 264.713 L 303.378 264.713 Q 303.497 264.981 303.585 265.364 L 303.585 265.364 L 303.585 265.364 Q 303.673 265.746 303.673 266.194 L 303.673 266.194 L 303.673 266.194 Q 303.673 267.724 302.741 268.554 L 302.741 268.554 L 302.741 268.554 Q 301.81 269.385 300.228 269.385 L 300.228 269.385 L 300.228 269.385 Q 298.197 269.385 296.923 268.699 L 296.923 268.699 L 297.169 267.776 L 297.169 267.776 Q 297.644 267.979 297.947 268.093 L 297.947 268.093 L 297.947 268.093 Q 298.25 268.207 298.87 268.33 L 298.87 268.33 L 298.87 268.33 Q 299.489 268.453 300.14 268.453 L 300.14 268.453 L 300.14 268.453 Q 301.265 268.453 301.906 267.886 L 301.906 267.886 L 301.906 267.886 Q 302.548 267.319 302.548 266.177 L 302.548 266.177 L 302.548 266.177 Q 302.548 265.772 302.451 265.465 L 302.451 265.465 L 302.451 265.465 Q 302.354 265.157 302.205 264.955 L 302.205 264.955 L 302.205 264.955 Q 302.056 264.753 301.748 264.573 L 301.748 264.573 L 301.748 264.573 Q 301.44 264.393 301.159 264.278 L 301.159 264.278 L 301.159 264.278 Q 300.878 264.164 300.386 263.997 L 300.386 263.997 L 299.305 263.637 L 299.305 263.637 Q 298.127 263.241 297.525 262.582 L 297.525 262.582 L 297.525 262.582 Q 296.923 261.923 296.923 260.78 L 296.923 260.78 L 296.923 260.78 Q 296.923 259.998 297.191 259.422 L 297.191 259.422 L 297.191 259.422 Q 297.459 258.847 297.942 258.513 L 297.942 258.513 L 297.942 258.513 Q 298.426 258.179 299.028 258.021 L 299.028 258.021 L 299.028 258.021 Q 299.63 257.862 300.368 257.862 L 300.368 257.862 L 300.368 257.862 Q 302.082 257.862 303.4 258.407 L 303.4 258.407 Z  M 311.625 267.864 L 311.625 267.864 L 311.625 260.64 L 312.75 260.64 L 312.75 269.297 L 311.827 269.297 L 311.748 268.734 L 311.748 268.734 Q 310.913 269.13 310.329 269.257 L 310.329 269.257 L 310.329 269.257 Q 309.744 269.385 309.032 269.385 L 309.032 269.385 L 309.032 269.385 Q 307.696 269.385 307.072 268.682 L 307.072 268.682 L 307.072 268.682 Q 306.448 267.979 306.448 266.476 L 306.448 266.476 L 306.448 260.64 L 307.573 260.64 L 307.573 266.52 L 307.573 266.52 Q 307.573 267.574 307.92 268.014 L 307.92 268.014 L 307.92 268.014 Q 308.268 268.453 309.146 268.453 L 309.146 268.453 L 309.146 268.453 Q 309.586 268.453 309.863 268.431 L 309.863 268.431 L 309.863 268.431 Q 310.14 268.409 310.636 268.273 L 310.636 268.273 L 310.636 268.273 Q 311.133 268.137 311.625 267.864 Z  M 317.345 268.919 L 317.345 268.919 L 317.345 272.716 L 316.22 272.716 L 316.22 260.64 L 317.143 260.64 L 317.248 261.246 L 317.248 261.246 Q 318.382 260.508 319.735 260.508 L 319.735 260.508 L 319.735 260.508 Q 321.115 260.508 321.902 261.598 L 321.902 261.598 L 321.902 261.598 Q 322.688 262.688 322.688 264.964 L 322.688 264.964 L 322.688 264.964 Q 322.688 267.319 321.889 268.352 L 321.889 268.352 L 321.889 268.352 Q 321.089 269.385 319.472 269.385 L 319.472 269.385 L 319.472 269.385 Q 318.285 269.385 317.345 268.919 Z  M 317.345 262.187 L 317.345 262.187 L 317.345 268.093 L 317.345 268.093 Q 318.118 268.453 319.059 268.453 L 319.059 268.453 L 319.313 268.453 L 319.313 268.453 Q 320.509 268.453 321.036 267.649 L 321.036 267.649 L 321.036 267.649 Q 321.563 266.845 321.563 264.981 L 321.563 264.981 L 321.563 264.981 Q 321.563 263.153 321.093 262.292 L 321.093 262.292 L 321.093 262.292 Q 320.623 261.431 319.595 261.431 L 319.595 261.431 L 319.595 261.431 Q 318.654 261.431 317.345 262.187 Z  M 329.085 261.431 L 329.085 261.431 L 329.085 261.431 Q 327.978 261.431 327.389 262.2 L 327.389 262.2 L 327.389 262.2 Q 326.8 262.969 326.694 264.384 L 326.694 264.384 L 331.15 264.384 L 331.15 263.944 L 331.15 263.944 Q 331.15 262.793 330.592 262.112 L 330.592 262.112 L 330.592 262.112 Q 330.034 261.431 329.085 261.431 Z  M 329.234 268.453 L 329.234 268.453 L 329.234 268.453 Q 330.588 268.453 331.695 267.75 L 331.695 267.75 L 332.038 268.638 L 332.038 268.638 Q 331.44 269.007 330.702 269.196 L 330.702 269.196 L 330.702 269.196 Q 329.964 269.385 329.296 269.385 L 329.296 269.385 L 329.296 269.385 Q 327.521 269.385 326.545 268.313 L 326.545 268.313 L 326.545 268.313 Q 325.569 267.24 325.569 264.938 L 325.569 264.938 L 325.569 264.938 Q 325.569 262.731 326.519 261.62 L 326.519 261.62 L 326.519 261.62 Q 327.468 260.508 329.076 260.508 L 329.076 260.508 L 329.076 260.508 Q 330.526 260.508 331.361 261.457 L 331.361 261.457 L 331.361 261.457 Q 332.196 262.406 332.196 263.988 L 332.196 263.988 L 332.196 263.988 Q 332.196 264.349 332.126 265.175 L 332.126 265.175 L 326.694 265.175 L 326.694 265.175 Q 326.703 265.957 326.853 266.55 L 326.853 266.55 L 326.853 266.55 Q 327.002 267.144 327.23 267.5 L 327.23 267.5 L 327.23 267.5 Q 327.459 267.855 327.797 268.075 L 327.797 268.075 L 327.797 268.075 Q 328.136 268.295 328.479 268.374 L 328.479 268.374 L 328.479 268.374 Q 328.821 268.453 329.234 268.453 Z  M 336.448 260.64 L 336.492 261.396 L 336.492 261.396 Q 337.011 261.044 337.806 260.789 L 337.806 260.789 L 337.806 260.789 Q 338.602 260.534 339.27 260.508 L 339.27 260.508 L 339.27 261.448 L 339.27 261.448 Q 338.505 261.448 337.718 261.681 L 337.718 261.681 L 337.718 261.681 Q 336.932 261.914 336.501 262.23 L 336.501 262.23 L 336.501 269.297 L 335.376 269.297 L 335.376 260.64 L 336.448 260.64 Z " fill-rule="evenodd" fill="rgb(0,0,0)"/></svg>